M48
; DRILL file {KiCad (5.1.10-1-10_14)} date Saturday, December 18, 2021 at 05:23:54 PM
; FORMAT={-:-/ absolute / metric / decimal}
; #@! TF.CreationDate,2021-12-18T17:23:54+09:00
; #@! TF.GenerationSoftware,Kicad,Pcbnew,(5.1.10-1-10_14)
FMAT,2
METRIC
T1C0.400
T2C0.800
T3C1.000
T4C3.200
%
G90
G05
T1
X6.508Y63.107
X10.875Y50.762
X14.006Y46.788
X21.787Y25.095
X22.328Y37.12
X23.543Y34.314
X25.302Y36.119
X25.68Y21.857
X34.477Y23.708
X34.505Y27.635
X36.587Y55.963
X39.7Y61.989
X40.256Y44.0
X46.378Y52.525
X47.589Y56.026
X47.73Y34.965
X47.935Y53.003
X54.052Y33.121
X55.793Y23.611
X57.753Y53.707
X60.339Y55.928
X63.977Y48.299
X66.499Y50.532
X69.608Y29.719
X70.881Y37.5
X72.154Y34.803
X77.673Y24.344
X80.28Y37.5
T2
X4.0Y44.0
X4.0Y41.46
X4.0Y38.92
X4.0Y36.38
X4.0Y33.84
X4.0Y31.3
X4.0Y28.76
X4.0Y26.22
X4.0Y23.68
X4.0Y21.14
X9.5Y46.9
X11.62Y44.0
X11.62Y41.46
X11.62Y38.92
X11.62Y36.38
X11.62Y33.84
X11.62Y31.3
X11.62Y28.76
X11.62Y26.22
X11.62Y23.68
X11.62Y21.14
X12.0Y46.9
X16.0Y46.04
X16.0Y43.5
X16.0Y40.96
X16.0Y38.42
X16.0Y35.88
X16.0Y33.34
X16.0Y30.8
X16.0Y28.26
X16.0Y25.72
X20.5Y44.0
X20.5Y41.46
X20.5Y38.92
X20.5Y36.38
X20.5Y33.84
X20.5Y31.3
X20.5Y28.76
X20.5Y26.22
X22.5Y12.1
X22.5Y9.6
X24.1Y59.0
X24.1Y56.5
X25.5Y11.62
X25.5Y4.0
X26.2Y47.0
X27.0Y58.62
X27.0Y51.0
X28.04Y11.62
X28.04Y4.0
X28.12Y44.0
X28.12Y41.46
X28.12Y38.92
X28.12Y36.38
X28.12Y33.84
X28.12Y31.3
X28.12Y28.76
X28.12Y26.22
X28.7Y47.0
X29.54Y58.62
X29.54Y51.0
X30.58Y11.62
X30.58Y4.0
X32.0Y21.5
X32.08Y58.62
X32.08Y51.0
X33.0Y45.74
X33.0Y43.2
X33.0Y40.66
X33.0Y38.12
X33.0Y35.58
X33.0Y33.04
X33.0Y30.5
X33.0Y27.96
X33.0Y25.42
X33.0Y17.0
X33.12Y11.62
X33.12Y4.0
X34.5Y21.5
X34.62Y58.62
X34.62Y51.0
X35.66Y11.62
X35.66Y4.0
X37.0Y21.5
X37.16Y58.62
X37.16Y51.0
X37.5Y44.0
X37.5Y41.46
X37.5Y38.92
X37.5Y36.38
X37.5Y33.84
X37.5Y31.3
X37.5Y28.76
X37.88Y17.0
X38.2Y11.62
X38.2Y4.0
X39.5Y21.5
X39.7Y58.62
X39.7Y51.0
X40.74Y11.62
X40.74Y4.0
X42.24Y58.62
X42.24Y51.0
X43.1Y47.0
X43.28Y11.62
X43.28Y4.0
X43.8Y25.16
X43.8Y15.0
X45.12Y44.0
X45.12Y41.46
X45.12Y38.92
X45.12Y36.38
X45.12Y33.84
X45.12Y31.3
X45.12Y28.76
X45.6Y47.0
X46.1Y59.1
X46.1Y56.6
X49.0Y58.62
X49.0Y51.0
X50.0Y46.5
X50.0Y36.34
X50.0Y33.66
X50.0Y23.5
X51.54Y58.62
X51.54Y51.0
X54.08Y58.62
X54.08Y51.0
X55.5Y46.24
X55.5Y31.0
X55.5Y26.24
X55.5Y11.0
X56.62Y58.62
X56.62Y51.0
X58.04Y46.24
X58.04Y31.0
X58.04Y26.24
X58.04Y11.0
X59.16Y58.62
X59.16Y51.0
X60.58Y46.24
X60.58Y31.0
X60.58Y26.24
X60.58Y11.0
X60.6Y20.6
X60.6Y18.1
X60.8Y41.0
X60.8Y38.5
X61.7Y58.62
X61.7Y51.0
X63.12Y46.24
X63.12Y31.0
X63.12Y26.24
X63.12Y11.0
X64.24Y58.62
X64.24Y51.0
X65.66Y46.24
X65.66Y31.0
X65.66Y26.24
X65.66Y11.0
X67.5Y59.1
X67.5Y56.6
X68.2Y46.24
X68.2Y31.0
X68.2Y26.24
X68.2Y11.0
X70.5Y58.62
X70.5Y51.0
X70.74Y46.24
X70.74Y31.0
X70.74Y26.24
X70.74Y11.0
X73.04Y58.62
X73.04Y51.0
X73.28Y46.24
X73.28Y31.0
X73.28Y26.24
X73.28Y11.0
X75.58Y58.62
X75.58Y51.0
X75.82Y46.24
X75.82Y31.0
X75.82Y26.24
X75.82Y11.0
X78.12Y58.62
X78.12Y51.0
X78.36Y46.24
X78.36Y31.0
X78.36Y26.24
X78.36Y11.0
X80.66Y58.62
X80.66Y51.0
X80.9Y46.24
X80.9Y31.0
X80.9Y26.24
X80.9Y11.0
X83.2Y58.62
X83.2Y51.0
X83.44Y46.24
X83.44Y31.0
X83.44Y26.24
X83.44Y11.0
X85.74Y58.62
X85.74Y51.0
X85.98Y46.24
X85.98Y31.0
X85.98Y26.24
X85.98Y11.0
X88.28Y58.62
X88.28Y51.0
X88.52Y46.24
X88.52Y31.0
X88.52Y26.24
X88.52Y11.0
T3
X9.4Y63.8
X9.4Y61.26
X9.4Y58.72
X9.4Y56.18
X9.4Y53.64
X9.4Y51.1
X20.5Y67.04
X20.5Y64.5
X23.04Y67.04
X23.04Y64.5
X25.58Y67.04
X25.58Y64.5
X28.12Y67.04
X28.12Y64.5
X30.66Y67.04
X30.66Y64.5
X33.2Y67.04
X33.2Y64.5
X35.74Y67.04
X35.74Y64.5
X38.28Y67.04
X38.28Y64.5
X40.82Y67.04
X40.82Y64.5
X43.36Y67.04
X43.36Y64.5
X45.9Y67.04
X45.9Y64.5
X47.5Y17.0
X47.5Y14.46
X47.5Y11.92
X47.5Y9.38
X47.5Y6.84
X47.5Y4.3
X48.44Y67.04
X48.44Y64.5
X50.04Y17.0
X50.04Y14.46
X50.04Y11.92
X50.04Y9.38
X50.04Y6.84
X50.04Y4.3
X50.98Y67.04
X50.98Y64.5
X53.52Y67.04
X53.52Y64.5
X56.06Y67.04
X56.06Y64.5
X58.6Y67.04
X58.6Y64.5
X61.14Y67.04
X61.14Y64.5
X63.68Y67.04
X63.68Y64.5
X66.22Y67.04
X66.22Y64.5
X68.76Y67.04
X68.76Y64.5
X71.3Y67.04
X71.3Y64.5
X73.84Y67.04
X73.84Y64.5
X76.38Y67.04
X76.38Y64.5
X78.92Y67.04
X78.92Y64.5
X81.46Y67.04
X81.46Y64.5
X93.5Y45.0
X93.5Y42.46
X93.5Y39.92
X93.5Y37.38
X93.5Y34.84
X93.5Y32.3
X93.5Y24.5
X93.5Y21.96
X93.5Y19.42
X93.5Y16.88
X93.5Y14.34
X93.5Y11.8
T4
X5.5Y70.5
X5.5Y4.5
X94.5Y70.5
X94.5Y4.5
T0
M30
